<?xml version="1.0" encoding="UTF-8"?>
<svg
   xmlns:svg="http://www.w3.org/2000/svg"
   xmlns="http://www.w3.org/2000/svg"
   width="256"
   height="256"
   viewBox="0 0 143 143"
   version="1.1"
   id="svg_tile_FF6">
	<defs id="defs">
		<marker
			viewBox="0 0 20 20"
			markerWidth="20"
			markerHeight="20"
			refX="10"
			refY="10"
			orient="auto"
			id="term">
		  <circle cx="10" cy="10" r="2" style="fill:black;stroke:white;stroke-width:0.45"/>
		  <circle cx="10" cy="10" r="1" style="fill:black;stroke:white;stroke-width:0.72"/>
		</marker>
	</defs>
  <path
     style="fill:black;fill-opacity:1;stroke:none"
     d="M 0 0 H 143 V 143 H 0 Z"
     id="tile_bg"/>
  <g style="fill:none;stroke:white;stroke-opacity:1;stroke-width:5">
    <path id="wire_0" d="M 143.0  23.5 H 111.5 L  55.5  60.5 V  84.0 L 120.5 119.5 H 143.0"/>
    <path id="wire_1" d="M 119.5   0.0 V   5.5 L  45.0  55.0 V  95.0 L 119.5 135.5 V 143.0"/>
    <path id="wire_2" d="M  71.5   0.0 V  11.5 L  35.5  50.0 V 115.0 L  71.5 133.0 V 143.0"/>
    <path id="wire_3" d="M   0.0  23.5 H  11.5 L  23.5  11.5 V   0.0"/>
    <path id="wire_4" d="M   0.0  71.5 H  14.5 L  26.5  81.5 V 125.5 L  23.5 138.9 V 143.0"/>
    <path id="wire_6" d="M 143.0  71.5 H  74.5" marker-end="url(#term)"/>
    <path id="wire_6" d="M   0.0 119.5 H  11.5" marker-end="url(#term)"/>
	</g>
</svg>
